<svg width="186" height="34" viewBox="0 0 186 34" fill="none" xmlns="http://www.w3.org/2000/svg">
<path d="M10.584 0.983997C11.832 0.983997 13.176 1.112 14.616 1.368C16.088 1.592 16.952 1.72 17.208 1.752L17.112 5.352C14.296 4.84 12.12 4.584 10.584 4.584C8.408 4.584 6.84 5.032 5.88 5.928C4.92 6.824 4.44 8.312 4.44 10.392V24.12C4.44 26.2 4.904 27.688 5.832 28.584C6.792 29.448 8.376 29.88 10.584 29.88C12.12 29.88 14.296 29.624 17.112 29.112L17.208 32.808C16.952 32.84 16.088 32.968 14.616 33.192C13.176 33.448 11.832 33.576 10.584 33.576C6.904 33.576 4.28 32.792 2.712 31.224C1.144 29.656 0.36 27.208 0.36 23.88V10.68C0.36 7.352 1.144 4.904 2.712 3.336C4.28 1.768 6.904 0.983997 10.584 0.983997ZM39.9881 1.56V5.256H27.5081V15.192H39.0281V18.84H27.5081V29.304H39.9881V33H23.4281V1.56H39.9881ZM61.125 33L50.757 6.456V33H46.725V1.56H53.253L63.429 28.104V1.56H67.461V33H61.125ZM94.8225 1.56V5.256H85.7025V33H81.6225V5.256H72.5025V1.56H94.8225ZM108.233 0.983997C112.009 0.983997 114.793 1.72 116.585 3.192C118.377 4.664 119.273 6.728 119.273 9.384V10.584C119.273 12.44 118.761 14.088 117.737 15.528C116.713 16.936 115.241 17.928 113.321 18.504L121.481 33H116.921L109.289 19.368C109.033 19.4 108.521 19.416 107.753 19.416C106.473 19.416 105.209 19.368 103.961 19.272V33H99.8813V1.176C103.465 1.048 106.249 0.983997 108.233 0.983997ZM108.137 4.44C107.081 4.44 105.689 4.472 103.961 4.536V15.864C105.689 16.024 107.129 16.104 108.281 16.104C112.889 16.104 115.193 14.232 115.193 10.488V9.528C115.193 7.8 114.633 6.52 113.513 5.688C112.393 4.856 110.601 4.44 108.137 4.44Z" fill="url(#paint0_linear)"/>
<path d="M133.675 0.983997C135.403 0.983997 137.659 1.24 140.443 1.752L140.347 5.352C137.723 4.84 135.499 4.584 133.675 4.584C131.819 4.584 130.475 4.952 129.643 5.688C128.843 6.424 128.443 7.544 128.443 9.048V10.296C128.443 11.096 128.539 11.736 128.731 12.216C128.955 12.664 129.339 13.064 129.883 13.416C130.427 13.736 131.243 14.072 132.331 14.424L136.795 15.912C138.939 16.648 140.443 17.624 141.307 18.84C142.203 20.056 142.651 21.832 142.651 24.168V25.08C142.651 27.928 141.819 30.056 140.155 31.464C138.523 32.872 135.835 33.576 132.091 33.576C130.267 33.576 127.931 33.256 125.083 32.616L125.179 28.92C127.835 29.56 130.107 29.88 131.995 29.88C134.395 29.88 136.091 29.528 137.083 28.824C138.075 28.088 138.571 26.952 138.571 25.416V23.832C138.571 22.712 138.315 21.864 137.803 21.288C137.323 20.68 136.459 20.168 135.211 19.752L130.267 18.12C128.059 17.384 126.523 16.44 125.659 15.288C124.795 14.104 124.363 12.328 124.363 9.96V9.432C124.363 6.648 125.099 4.552 126.571 3.144C128.075 1.704 130.443 0.983997 133.675 0.983997ZM152.008 1.56V33H147.928V1.56H152.008ZM181.833 33L181.593 7.176L174.921 29.736H169.881L163.209 7.176L162.969 33H158.985L159.273 1.56H165.321L172.425 26.088L179.481 1.56H185.529L185.817 33H181.833Z" fill="#151515"/>
<defs>
<linearGradient id="paint0_linear" x1="93.5" y1="-7" x2="93.5" y2="44" gradientUnits="userSpaceOnUse">
<stop stop-color="#FFC096"/>
<stop offset="1" stop-color="#FE8736"/>
</linearGradient>
</defs>
</svg>
